<svg width="40" height="40" viewBox="0 0 40 40" fill="none"
    xmlns="http://www.w3.org/2000/svg">
    <path d="M22.0203 17.7346C22.5561 17.1988 22.8571 16.472 22.8571 15.7143C22.8571 14.9565 22.5561 14.2298 22.0203 13.694C21.4845 13.1582 20.7578 12.8571 20 12.8571C19.2422 12.8571 18.5155 13.1582 17.9797 13.694C17.4439 14.2298 17.1429 14.9565 17.1429 15.7143C17.1429 16.472 17.4439 17.1988 17.9797 17.7346C18.5155 18.2704 19.2422 18.5714 20 18.5714C20.7578 18.5714 21.4845 18.2704 22.0203 17.7346Z" fill="black"/>
    <path d="M25.9543 24.76C26.9229 25.7286 27.1414 26.7857 27.1429 27.1371H12.8571C12.86 26.7857 13.0771 25.7286 14.0457 24.76C14.9771 23.8286 16.7286 22.8571 20 22.8571C23.27 22.8571 25.0229 23.8286 25.9543 24.76Z" fill="black"/>
    <path fill-rule="evenodd" clip-rule="evenodd" d="M20 40C31.0457 40 40 31.0457 40 20C40 8.95431 31.0457 0 20 0C8.95431 0 0 8.95431 0 20C0 31.0457 8.95431 40 20 40ZM23.0305 18.7447C22.2267 19.5485 21.1366 20 20 20C18.8634 20 17.7733 19.5485 16.9695 18.7447C16.1658 17.941 15.7143 16.8509 15.7143 15.7143C15.7143 14.5776 16.1658 13.4876 16.9695 12.6838C17.7733 11.8801 18.8634 11.4286 20 11.4286C21.1366 11.4286 22.2267 11.8801 23.0305 12.6838C23.8342 13.4876 24.2857 14.5776 24.2857 15.7143C24.2857 16.8509 23.8342 17.941 23.0305 18.7447ZM27.1429 28.5714C27.1429 28.5714 28.5714 28.5714 28.5714 27.1429C28.5714 25.7143 27.1429 21.4286 20 21.4286C12.8571 21.4286 11.4286 25.7143 11.4286 27.1429C11.4286 28.5714 12.8571 28.5714 12.8571 28.5714H27.1429Z" fill="black"/>
</svg>
