<svg width="51" height="98" viewBox="0 0 51 98" fill="none" xmlns="http://www.w3.org/2000/svg">
<path d="M6.59766 50H3.03516L3.05859 48.1602H6.59766C7.81641 48.1602 8.83203 47.9062 9.64453 47.3984C10.457 46.8828 11.0664 46.1641 11.4727 45.2422C11.8867 44.3125 12.0938 43.2266 12.0938 41.9844V40.9414C12.0938 39.9648 11.9766 39.0977 11.7422 38.3398C11.5078 37.5742 11.1641 36.9297 10.7109 36.4062C10.2578 35.875 9.70312 35.4727 9.04688 35.1992C8.39844 34.9258 7.65234 34.7891 6.80859 34.7891H2.96484V32.9375H6.80859C7.92578 32.9375 8.94531 33.125 9.86719 33.5C10.7891 33.8672 11.582 34.4023 12.2461 35.1055C12.918 35.8008 13.4336 36.6445 13.793 37.6367C14.1523 38.6211 14.332 39.7305 14.332 40.9648V41.9844C14.332 43.2188 14.1523 44.332 13.793 45.3242C13.4336 46.3086 12.9141 47.1484 12.2344 47.8438C11.5625 48.5391 10.75 49.0742 9.79688 49.4492C8.85156 49.8164 7.78516 50 6.59766 50ZM4.24219 32.9375V50H1.98047V32.9375H4.24219ZM20.1562 32.9375V50H17.8945V32.9375H20.1562ZM35.1094 48.1602V50H26.0742V48.1602H35.1094ZM26.5312 32.9375V50H24.2695V32.9375H26.5312ZM33.9141 40.2734V42.1133H26.0742V40.2734H33.9141ZM34.9922 32.9375V34.7891H26.0742V32.9375H34.9922ZM44.4492 32.9375V50H42.2227V32.9375H44.4492ZM49.9336 32.9375V34.7891H36.75V32.9375H49.9336Z" fill="black"/>
<path d="M17.3477 58.4688H18.4434L21.2383 65.4238L24.0273 58.4688H25.1289L21.6602 67H20.8047L17.3477 58.4688ZM16.9902 58.4688H17.957L18.1152 63.6719V67H16.9902V58.4688ZM24.5137 58.4688H25.4805V67H24.3555V63.6719L24.5137 58.4688ZM34.4467 66.0801V67H29.9291V66.0801H34.4467ZM30.1577 58.4688V67H29.0268V58.4688H30.1577ZM33.8491 62.1367V63.0566H29.9291V62.1367H33.8491ZM34.3881 58.4688V59.3945H29.9291V58.4688H34.3881Z" fill="black"/>
</svg>
